<svg width="1606" height="1032" viewBox="0 0 1606 1032" fill="none" xmlns="http://www.w3.org/2000/svg">
<path opacity="0.05" d="M159.421 121.294L159.421 121.294C156.817 123.898 155.354 127.429 155.354 131.112V922.386C155.354 923.583 154.384 924.554 153.186 924.554H8.71399C7.51685 924.554 6.54632 923.583 6.54632 922.386V50.8495C6.54632 50.2746 6.7747 49.7233 7.18117 49.3168L3.0498 45.1853L7.18121 49.3167L163.004 -106.506C163.411 -106.913 163.962 -107.141 164.537 -107.141H1036.07C1037.27 -107.141 1038.24 -106.171 1038.24 -104.974V39.4987C1038.24 40.6958 1037.27 41.6664 1036.07 41.6664H244.8C241.117 41.6664 237.586 43.1292 234.982 45.7331L239.124 49.8758L234.982 45.7331L159.421 121.294ZM1289.03 51.6676L1290.75 49.9517V47.525V-107.141H1439.55V125.361L317.595 1247.32L315.879 1249.04V1251.46V1410.14H167.071V1173.63L1289.03 51.6676ZM570.551 1406.13C569.354 1406.13 568.384 1405.16 568.384 1403.96V1259.49C568.384 1258.29 569.354 1257.32 570.551 1257.32H1361.83C1365.51 1257.32 1369.04 1255.86 1371.64 1253.25L1447.2 1177.69C1449.81 1175.09 1451.27 1171.56 1451.27 1167.87V376.601C1451.27 375.404 1452.24 374.433 1453.44 374.433H1597.91C1599.11 374.433 1600.08 375.404 1600.08 376.601V1248.14C1600.08 1248.71 1599.85 1249.26 1599.44 1249.67L1443.62 1405.49C1443.21 1405.9 1442.66 1406.13 1442.09 1406.13H570.551Z" stroke="url(#paint0_linear_368_98)" stroke-width="11.7171"/>
<defs>
<linearGradient id="paint0_linear_368_98" x1="1605.94" y1="651.5" x2="0.687744" y2="651.5" gradientUnits="userSpaceOnUse">
<stop stop-color="#F3F3F3"/>
<stop offset="1" stop-color="#181818"/>
</linearGradient>
</defs>
</svg>
