<svg width="919" height="1001" viewBox="0 0 919 1001" fill="none" xmlns="http://www.w3.org/2000/svg">
<path opacity="0.05" d="M702.628 91.4284L703.8 90.2568V88.6V-17H805.4V141.743L39.3716 907.771L38.2 908.943V910.6V1018.94H-63.4V857.457L702.628 91.4284ZM-172.566 89.8234L-175.376 87.0141L-172.566 89.8234L-66.1766 -16.5665C-65.8991 -16.8441 -65.5226 -17 -65.1301 -17H529.92C530.737 -17 531.4 -16.3374 531.4 -15.52V83.12C531.4 83.9374 530.737 84.6 529.92 84.6H-10.3301C-12.8443 84.6 -15.2556 85.5988 -17.0335 87.3766L-68.6233 138.967C-70.4011 140.744 -71.4 143.156 -71.4 145.67V685.92C-71.4 686.737 -72.0626 687.4 -72.88 687.4H-171.52C-172.337 687.4 -173 686.737 -173 685.92V90.8699C-173 90.4775 -172.844 90.101 -172.566 89.8234ZM212.08 1016.2C211.263 1016.2 210.6 1015.54 210.6 1014.72V916.08C210.6 915.263 211.263 914.6 212.08 914.6H752.33C754.844 914.6 757.256 913.601 759.033 911.823L810.623 860.234C812.401 858.456 813.4 856.044 813.4 853.53V313.28C813.4 312.463 814.063 311.8 814.88 311.8H913.52C914.337 311.8 915 312.463 915 313.28V908.33C915 908.723 914.844 909.099 914.567 909.377L808.177 1015.77C807.899 1016.04 807.522 1016.2 807.13 1016.2H212.08Z" stroke="url(#paint0_linear_368_274)" stroke-width="8"/>
<defs>
<linearGradient id="paint0_linear_368_274" x1="919" y1="500.97" x2="-177" y2="500.97" gradientUnits="userSpaceOnUse">
<stop stop-color="#F3F3F3"/>
<stop offset="1" stop-color="#181818"/>
</linearGradient>
</defs>
</svg>
