<svg width="80" height="80" viewBox="0 0 80 80" fill="none" xmlns="http://www.w3.org/2000/svg">
<rect x="0.8" y="0.8" width="78.4" height="78.4" rx="23.2" stroke="#00ABF3" stroke-width="1.6"/>
<path d="M40 37.3333C46.6666 37.3333 52.3333 36.2889 57 34.2C61.6666 32.1111 64 29.6 64 26.6667C64 23.7333 61.6666 21.2222 57 19.1333C52.3333 17.0444 46.6666 16 40 16C33.3333 16 27.6667 17.0444 23 19.1333C18.3333 21.2222 16 23.7333 16 26.6667C16 29.6 18.3333 32.1111 23 34.2C27.6667 36.2889 33.3333 37.3333 40 37.3333ZM40 44C41.8222 44 44.1004 43.8106 46.8346 43.432C49.5689 43.0533 52.2017 42.4426 54.7333 41.6C57.2648 40.7573 59.4426 39.6578 61.2666 38.3013C63.0906 36.9449 64.0017 35.2889 64 33.3333V40C64 41.9555 63.0888 43.6115 61.2666 44.968C59.4444 46.3244 57.2666 47.424 54.7333 48.2666C52.2 49.1093 49.5671 49.7209 46.8346 50.1013C44.1022 50.4817 41.824 50.6702 40 50.6666C38.176 50.6631 35.8986 50.4737 33.168 50.0986C30.4373 49.7235 27.8035 49.1129 25.2667 48.2666C22.7298 47.4204 20.552 46.3209 18.7333 44.968C16.9147 43.6151 16.0036 41.9591 16 40V33.3333C16 35.2889 16.9111 36.9449 18.7333 38.3013C20.5556 39.6578 22.7333 40.7573 25.2667 41.6C27.8 42.4426 30.4338 43.0542 33.168 43.4346C35.9022 43.8151 38.1795 44.0035 40 44ZM40 57.3333C41.8222 57.3333 44.1004 57.144 46.8346 56.7653C49.5689 56.3866 52.2017 55.776 54.7333 54.9333C57.2648 54.0906 59.4426 52.9911 61.2666 51.6346C63.0906 50.2782 64.0017 48.6222 64 46.6666V53.3333C64 55.2888 63.0888 56.9448 61.2666 58.3013C59.4444 59.6577 57.2666 60.7573 54.7333 61.6C52.2 62.4426 49.5671 63.0542 46.8346 63.4346C44.1022 63.8151 41.824 64.0035 40 64C38.176 63.9964 35.8986 63.8071 33.168 63.432C30.4373 63.0568 27.8035 62.4462 25.2667 61.6C22.7298 60.7537 20.552 59.6542 18.7333 58.3013C16.9147 56.9484 16.0036 55.2924 16 53.3333V46.6666C16 48.6222 16.9111 50.2782 18.7333 51.6346C20.5556 52.9911 22.7333 54.0906 25.2667 54.9333C27.8 55.776 30.4338 56.3875 33.168 56.768C35.9022 57.1484 38.1795 57.3368 40 57.3333Z" fill="#00ABF3"/>
</svg>
