<svg width="80" height="80" viewBox="0 0 80 80" fill="none" xmlns="http://www.w3.org/2000/svg">
<rect x="0.8" y="0.8" width="78.4" height="78.4" rx="23.2" stroke="#00ABF3" stroke-width="1.6"/>
<path d="M32.0891 35.4937C31.3543 33.7199 31.288 32.5403 31.288 30.6203C31.288 26.7427 32.8283 23.024 35.5701 20.2822C38.312 17.5403 42.0307 16 45.9083 16C49.7858 16 53.5045 17.5403 56.2464 20.2822C58.9882 23.024 60.5285 26.7427 60.5285 30.6203C60.5285 32.5403 60.1504 34.4414 59.4156 36.2152C58.6809 37.989 57.604 39.6008 56.2464 40.9584C54.8887 42.316 53.277 43.3929 51.5032 44.1277C49.7294 44.8624 45.8081 45.6411 45.8081 45.6411M32.2626 25.7469H59.5539M42.2031 35.4937H59.5539M45.096 16C42.3593 20.3855 40.9084 25.451 40.9084 30.6203C40.9084 35.7896 42.3032 35.427 42.3032 35.427M46.7205 16C49.4572 20.3855 50.9081 25.451 50.9081 30.6203C50.9081 35.7896 49.4572 40.8551 46.7205 45.2406" stroke="#00ABF3" stroke-width="3.24895" stroke-linecap="round" stroke-linejoin="round"/>
<path d="M29.4855 63.9999C28.5675 63.9999 27.782 63.6733 27.1289 63.0202C26.4757 62.3671 26.1486 61.581 26.1475 60.6619C26.1464 59.7429 26.4735 58.9573 27.1289 58.3053C27.7842 57.6533 28.5697 57.3262 29.4855 57.324C30.4012 57.3217 31.1873 57.6489 31.8437 58.3053C32.5002 58.9618 32.8268 59.7473 32.8234 60.6619C32.8201 61.5765 32.4935 62.3626 31.8437 63.0202C31.1939 63.6778 30.4078 64.0044 29.4855 63.9999ZM46.1753 63.9999C45.2573 63.9999 44.4718 63.6733 43.8187 63.0202C43.1656 62.3671 42.8384 61.581 42.8373 60.6619C42.8362 59.7429 43.1633 58.9573 43.8187 58.3053C44.474 57.6533 45.2596 57.3262 46.1753 57.324C47.091 57.3217 47.8771 57.6489 48.5336 58.3053C49.19 58.9618 49.5166 59.7473 49.5133 60.6619C49.5099 61.5765 49.1834 62.3626 48.5336 63.0202C47.8838 63.6778 47.0977 64.0044 46.1753 63.9999ZM28.0668 37.2962L32.0724 45.6411H43.7553L48.345 37.2962H28.0668ZM26.4813 33.9582H51.0988C51.7386 33.9582 52.2254 34.2436 52.5591 34.8144C52.8929 35.3852 52.9069 35.9621 52.6009 36.5451L46.676 47.2266C46.37 47.7829 45.96 48.2141 45.4459 48.5201C44.9319 48.8261 44.3683 48.9791 43.7553 48.9791H31.3213L29.4855 52.317H48.5119C49.0649 52.317 49.5133 52.7654 49.5133 53.3184V54.6536C49.5133 55.2066 49.0649 55.655 48.5119 55.655H29.4855C28.2337 55.655 27.288 55.1059 26.6482 54.0077C26.0084 52.9095 25.9806 51.8174 26.5647 50.7315L28.8179 46.6425L22.8095 33.9582H20.4729C19.9199 33.9582 19.4716 33.5099 19.4716 32.9568V31.6216C19.4716 31.0686 19.9199 30.6202 20.4729 30.6202H24.2628C24.6494 30.6202 25.0015 30.8428 25.1673 31.192L26.4813 33.9582Z" fill="#00ABF3"/>
</svg>
