<svg width="80" height="80" viewBox="0 0 80 80" fill="none" xmlns="http://www.w3.org/2000/svg">
<rect x="0.8" y="0.8" width="78.4" height="78.4" rx="23.2" stroke="#00ABF3" stroke-width="1.6"/>
<path d="M35.8261 53.5652L31.6522 64M44.1739 53.5652L48.3478 64M27.4783 64H52.5217M65.0435 16H14.9565C14.403 16 13.8722 16.2199 13.4808 16.6113C13.0894 17.0026 12.8696 17.5335 12.8696 18.087V51.4783C12.8696 52.0318 13.0894 52.5626 13.4808 52.954C13.8722 53.3453 14.403 53.5652 14.9565 53.5652H65.0435C65.597 53.5652 66.1278 53.3453 66.5192 52.954C66.9106 52.5626 67.1304 52.0318 67.1304 51.4783V18.087C67.1304 17.5335 66.9106 17.0026 66.5192 16.6113C66.1278 16.2199 65.597 16 65.0435 16Z" stroke="#00ABF3" stroke-width="4.17391" stroke-linecap="round" stroke-linejoin="round"/>
<path d="M29.5652 29.5653L22.2609 35.8261L28.5217 41.0435M51.4783 30.6087L57.7391 35.8261L50.4348 42.087M36.8696 44.174L43.1304 25.3914" stroke="#00ABF3" stroke-width="4.17391" stroke-linecap="round" stroke-linejoin="round"/>
</svg>
