<svg width="279" height="99" viewBox="0 0 279 99" fill="none" xmlns="http://www.w3.org/2000/svg">
<path d="M221.482 24.7023C195.815 11.0849 165.353 3.77588 136.5 1.91313C100.323 -0.422522 54.0001 11.3534 31.8672 24.9242C9.7343 38.4949 10 62.9131 25.9569 75.5048C41.9138 88.0965 76.6056 90.4362 110.031 92.1085C155.303 94.3734 188.068 87.1394 224.851 75.1099C239.677 70.261 281.698 50.7875 255.096 29.9959C229.681 10.1321 188.021 7.92447 158.042 6.35381C108.894 3.77892 69.8587 3.48649 23 20.4132C2.62503 27.7732 -3.72014 50.4474 7.82395 72.4131C23 98.9132 51.3097 96.5795 71.5 97.4131C102.799 98.7055 151.177 90.6306 182.567 88.2848C346.187 76.0573 181.581 103.58 277.442 93.019" stroke="#00ABF3" stroke-width="2.73076" stroke-linecap="round"/>
</svg>
